<svg xmlns="http://www.w3.org/2000/svg" viewBox="0 0 72.48 89.98"><defs><style>.cls-1{font-size:12.84px;}.cls-1,.cls-3{fill:#fff;font-family:ArialMT, Arial;}.cls-2,.cls-4{fill:none;stroke:#fff;stroke-linecap:round;stroke-width:1.11px;}.cls-2{stroke-miterlimit:10;}.cls-3{font-size:9.64px;}.cls-4{stroke-linejoin:round;}</style></defs><g id="Layer_2" data-name="Layer 2"><g id="Layer_3" data-name="Layer 3"><text class="cls-1" transform="translate(22.14 85.82)">News</text><line class="cls-2" x1="28.1" y1="9.11" x2="64.03" y2="9.11"/><line class="cls-2" x1="28.1" y1="29.58" x2="43.09" y2="29.58"/><line class="cls-2" x1="28.1" y1="39.63" x2="43.09" y2="39.63"/><line class="cls-2" x1="28.1" y1="34.6" x2="43.09" y2="34.6"/><line class="cls-2" x1="49.04" y1="29.58" x2="64.03" y2="29.58"/><line class="cls-2" x1="49.04" y1="39.63" x2="64.03" y2="39.63"/><line class="cls-2" x1="49.04" y1="34.6" x2="64.03" y2="34.6"/><line class="cls-2" x1="49.04" y1="29.58" x2="64.03" y2="29.58"/><line class="cls-2" x1="49.04" y1="39.63" x2="64.03" y2="39.63"/><line class="cls-2" x1="49.04" y1="34.6" x2="64.03" y2="34.6"/><line class="cls-2" x1="28.1" y1="44.05" x2="43.09" y2="44.05"/><line class="cls-2" x1="28.1" y1="54.1" x2="43.09" y2="54.1"/><line class="cls-2" x1="28.1" y1="49.07" x2="43.09" y2="49.07"/><line class="cls-2" x1="49.04" y1="44.05" x2="64.03" y2="44.05"/><line class="cls-2" x1="49.04" y1="54.1" x2="64.03" y2="54.1"/><line class="cls-2" x1="49.04" y1="49.07" x2="64.03" y2="49.07"/><line class="cls-2" x1="49.04" y1="44.05" x2="64.03" y2="44.05"/><line class="cls-2" x1="49.04" y1="54.1" x2="64.03" y2="54.1"/><line class="cls-2" x1="49.04" y1="49.07" x2="64.03" y2="49.07"/><text class="cls-3" transform="translate(33.03 17.8)">NEWS</text><line class="cls-4" x1="9.62" y1="10.46" x2="9.62" y2="52.58"/><line class="cls-2" x1="28.1" y1="19.58" x2="64.03" y2="19.58"/><path class="cls-4" d="M.55,22.08v30.5l0,.46A9.19,9.19,0,0,0,19,53l0-.46V.55h53V49a13.2,13.2,0,0,1-13.2,13.2H9.65"/></g></g></svg>