<svg xmlns="http://www.w3.org/2000/svg" viewBox="0 0 82.33 89.98"><defs><style>.cls-1{font-size:12.84px;font-family:ArialMT, Arial;}.cls-1,.cls-3{fill:#fff;}.cls-2{fill:none;stroke:#fff;stroke-miterlimit:10;stroke-width:1.11px;}</style></defs><g id="Layer_2" data-name="Layer 2"><g id="Layer_3" data-name="Layer 3"><text class="cls-1" transform="translate(20.83 85.82)">Recruit</text><path class="cls-2" d="M5.65,60.76A3.77,3.77,0,0,1,3,54.33L16.13,41.19a3.76,3.76,0,1,1,5.32,5.32L8.31,59.65A3.75,3.75,0,0,1,5.65,60.76Z"/><line class="cls-2" x1="21.45" y1="41.19" x2="25.67" y2="37.35"/><path class="cls-2" d="M19.49,22.2A21.65,21.65,0,1,0,41.14.55,21.61,21.61,0,0,0,19.49,22.2Z"/><path class="cls-2" d="M39.41,6.61A13.87,13.87,0,0,0,25.55,20.47"/><line class="cls-2" x1="14.43" y1="42.89" x2="19.75" y2="48.21"/><path class="cls-3" d="M42.45,22.15a5.2,5.2,0,1,0-2.62,0,10.4,10.4,0,0,0-9.09,10.31h20.8A10.4,10.4,0,0,0,42.45,22.15Z"/><path class="cls-2" d="M9.66,23.18a4,4,0,1,0-2,0,8.08,8.08,0,0,0-7.07,8H16.72A8.08,8.08,0,0,0,9.66,23.18Z"/><path class="cls-2" d="M74.71,23.18a4,4,0,1,0-2,0,8.08,8.08,0,0,0-7.06,8H81.77A8.08,8.08,0,0,0,74.71,23.18Z"/></g></g></svg>