<svg xmlns="http://www.w3.org/2000/svg" viewBox="0 0 82.78 89.98"><defs><style>.cls-1{font-size:12.84px;font-family:ArialMT, Arial;}.cls-1,.cls-4{fill:#fff;}.cls-2,.cls-3{fill:none;stroke:#fff;stroke-miterlimit:10;stroke-width:1.11px;}.cls-3{stroke-linecap:round;}</style></defs><g id="Layer_2" data-name="Layer 2"><g id="Layer_3" data-name="Layer 3"><text class="cls-1" transform="translate(0 85.82)">HR Consulting</text><polygon class="cls-2" points="56.31 57.23 34.45 57.23 34.22 48.34 56.07 48.34 56.31 57.23"/><path class="cls-2" d="M14.14,38V4.65A4.11,4.11,0,0,1,18.23.55h54.3a4.11,4.11,0,0,1,4.09,4.1v39.6a4.1,4.1,0,0,1-4.09,4.09H19.23"/><path class="cls-2" d="M19.23,48.34h-1a4.11,4.11,0,0,1-3.94-3"/><rect class="cls-2" x="24.64" y="57.23" width="41.49" height="5.19" rx="2.59"/><rect class="cls-2" x="52.58" y="15.84" width="2.25" height="4.5"/><rect class="cls-2" x="56.18" y="13.59" width="2.25" height="6.75"/><rect class="cls-2" x="59.78" y="11.34" width="2.25" height="9"/><rect class="cls-2" x="63.38" y="13.59" width="2.25" height="6.75"/><rect class="cls-2" x="66.98" y="15.84" width="2.25" height="4.5"/><line class="cls-3" x1="51.08" y1="20.34" x2="70.78" y2="20.34"/><polyline class="cls-3" points="53.89 30.97 53.89 37.39 67.97 37.39"/><polyline class="cls-2" points="62.53 26.28 57.03 30.38 62.65 34.01"/><circle class="cls-4" cx="62.65" cy="26.46" r="1.29"/><circle class="cls-4" cx="57.25" cy="30.15" r="1.29"/><circle class="cls-4" cx="62.91" cy="33.75" r="1.29"/><path class="cls-2" d="M8.69,49.59A2.54,2.54,0,0,1,6.9,45.26l8.86-8.86A2.54,2.54,0,0,1,19.35,40l-8.86,8.86A2.57,2.57,0,0,1,8.69,49.59Z"/><line class="cls-2" x1="19.35" y1="36.4" x2="22.2" y2="33.81"/><path class="cls-2" d="M18,23.6A14.6,14.6,0,1,0,32.62,9,14.54,14.54,0,0,0,18,23.6Z"/><path class="cls-3" d="M31.46,13.09a9.35,9.35,0,0,0-9.35,9.34"/><line class="cls-2" x1="14.61" y1="37.54" x2="18.2" y2="41.13"/><circle class="cls-4" cx="32.62" cy="20.18" r="3.5"/><path class="cls-4" d="M25.61,30.51a7,7,0,0,1,14,0"/></g></g></svg>